<svg version="1.1" xmlns="http://www.w3.org/2000/svg" xmlns:xlink="http://www.w3.org/1999/xlink" x="0px" y="0px" width="160" height="55" viewBox="0 0 160 55" enable-background="new 0 0 160 55" xml:space="preserve">
        <path d="M96.59,45.904c-0.043-0.404-0.18-0.725-0.407-0.962c-0.229-0.237-0.519-0.356-0.869-0.356c-0.414,0-0.73,0.119-0.949,0.356 c-0.221,0.237-0.365,0.558-0.435,0.962H96.59z M95.405,50.199c-0.554,0-1.054-0.091-1.502-0.27c-0.448-0.18-0.827-0.431-1.133-0.751 c-0.308-0.321-0.546-0.7-0.713-1.14c-0.166-0.439-0.25-0.914-0.25-1.423c0-0.5,0.083-0.968,0.25-1.404 c0.166-0.434,0.404-0.812,0.713-1.133c0.306-0.32,0.673-0.571,1.093-0.751c0.421-0.18,0.892-0.27,1.409-0.27 c0.483,0,0.916,0.075,1.298,0.223c0.382,0.15,0.718,0.356,1.008,0.62c0.404,0.37,0.705,0.837,0.902,1.404 c0.198,0.566,0.293,1.192,0.284,1.877h-4.848c0.069,0.458,0.226,0.817,0.474,1.082c0.246,0.262,0.592,0.395,1.041,0.395 c0.281,0,0.513-0.06,0.699-0.178c0.184-0.118,0.324-0.284,0.421-0.494h2.095c-0.07,0.307-0.202,0.599-0.396,0.876 c-0.193,0.277-0.438,0.517-0.738,0.718c-0.281,0.203-0.594,0.356-0.942,0.462C96.223,50.147,95.835,50.199,95.405,50.199  M87.275,43.256h2.055v1.054h0.038c0.239-0.403,0.501-0.699,0.791-0.882c0.289-0.185,0.641-0.277,1.054-0.277 c0.204,0,0.343,0.018,0.423,0.052v1.845h-0.053c-0.658-0.097-1.184,0.015-1.574,0.336c-0.391,0.321-0.587,0.85-0.587,1.587v3.031 h-2.148V43.256z M82.215,50.199c-0.781,0-1.373-0.23-1.773-0.692c-0.399-0.461-0.598-1.069-0.598-1.825v-4.426h2.134v3.979 c0,0.369,0.083,0.652,0.25,0.849c0.169,0.198,0.422,0.297,0.766,0.297c0.369,0,0.658-0.125,0.869-0.375 c0.21-0.25,0.316-0.577,0.316-0.981v-3.768h2.147v6.746h-2.055v-0.83h-0.039c-0.245,0.334-0.524,0.588-0.836,0.764 C83.083,50.112,82.691,50.199,82.215,50.199 M77.947,50.08c-0.316,0-0.604-0.028-0.864-0.084c-0.258-0.058-0.483-0.156-0.676-0.298 c-0.195-0.14-0.343-0.331-0.45-0.573c-0.106-0.241-0.158-0.542-0.158-0.902V44.6h-0.896v-1.344h0.896v-2.134h2.096v2.134h1.224V44.6 h-1.224v3.162c0,0.262,0.067,0.439,0.205,0.527c0.134,0.087,0.318,0.131,0.546,0.131c0.096,0,0.189-0.002,0.276-0.006 c0.086-0.004,0.154-0.006,0.197-0.006v1.568c-0.096,0.027-0.243,0.05-0.442,0.073C78.481,50.069,78.237,50.08,77.947,50.08  M72.057,40.581h2.174v9.421h-2.174V40.581z M66.983,50.199c-0.78,0-1.371-0.23-1.771-0.692c-0.4-0.461-0.6-1.069-0.6-1.825v-4.426 h2.136v3.979c0,0.369,0.082,0.652,0.249,0.849c0.169,0.198,0.422,0.297,0.765,0.297c0.369,0,0.66-0.125,0.87-0.375 c0.21-0.25,0.316-0.577,0.316-0.981v-3.768h2.148v6.746h-2.055v-0.83h-0.04c-0.246,0.334-0.524,0.588-0.836,0.764 C67.852,50.112,67.459,50.199,66.983,50.199 M60.74,50.212c-0.545,0-1.038-0.09-1.476-0.27c-0.439-0.18-0.815-0.43-1.126-0.751 c-0.311-0.32-0.554-0.699-0.725-1.134c-0.172-0.434-0.257-0.906-0.257-1.416c0-0.509,0.083-0.981,0.251-1.415 c0.166-0.435,0.403-0.813,0.711-1.134c0.307-0.32,0.678-0.571,1.114-0.751c0.434-0.18,0.918-0.27,1.456-0.27 c0.457,0,0.87,0.064,1.244,0.191c0.374,0.127,0.698,0.305,0.971,0.533c0.271,0.229,0.491,0.501,0.657,0.818 c0.169,0.316,0.278,0.662,0.331,1.041h-2.068c-0.071-0.308-0.197-0.553-0.376-0.733c-0.179-0.179-0.423-0.269-0.732-0.269 c-0.465,0-0.812,0.177-1.04,0.533c-0.229,0.355-0.342,0.84-0.342,1.455c0,0.607,0.113,1.086,0.342,1.437 c0.228,0.352,0.575,0.527,1.04,0.527c0.685,0,1.076-0.386,1.173-1.159h2.056c-0.019,0.387-0.104,0.749-0.258,1.087 c-0.154,0.339-0.368,0.632-0.645,0.883c-0.276,0.251-0.612,0.446-1.003,0.587C61.647,50.143,61.214,50.212,60.74,50.212  M97.869,37.195c0.404,0,0.731-0.11,0.982-0.33c0.249-0.22,0.375-0.514,0.375-0.882V35.18c-0.141,0.07-0.305,0.134-0.495,0.191 c-0.189,0.058-0.392,0.112-0.612,0.164c-0.413,0.097-0.71,0.209-0.896,0.336c-0.184,0.128-0.276,0.319-0.276,0.574 c0,0.272,0.086,0.465,0.262,0.58C97.385,37.139,97.605,37.195,97.869,37.195 M97.183,38.566c-0.333,0-0.643-0.045-0.928-0.131 c-0.287-0.089-0.529-0.221-0.731-0.396c-0.203-0.176-0.362-0.391-0.475-0.646c-0.115-0.254-0.172-0.548-0.172-0.882 c0-0.369,0.068-0.679,0.204-0.93c0.137-0.25,0.323-0.455,0.56-0.619c0.238-0.162,0.512-0.287,0.824-0.375 c0.312-0.087,0.643-0.154,0.994-0.197c0.631-0.079,1.076-0.167,1.331-0.264c0.255-0.096,0.382-0.258,0.382-0.487 c0-0.219-0.074-0.395-0.218-0.526c-0.145-0.132-0.379-0.198-0.705-0.198c-0.342,0-0.602,0.075-0.778,0.224 c-0.175,0.149-0.281,0.365-0.316,0.645h-1.975c0.007-0.316,0.079-0.614,0.21-0.895c0.132-0.282,0.323-0.527,0.573-0.738 c0.251-0.211,0.564-0.378,0.942-0.501c0.378-0.123,0.821-0.183,1.331-0.183c0.509,0,0.94,0.046,1.293,0.138 c0.35,0.092,0.648,0.231,0.895,0.415c0.29,0.211,0.505,0.479,0.645,0.803c0.141,0.326,0.21,0.7,0.21,1.121v3.399 c0,0.273,0.017,0.485,0.047,0.639c0.03,0.154,0.094,0.262,0.191,0.323v0.092h-2.082c-0.053-0.069-0.096-0.169-0.132-0.296 c-0.035-0.128-0.066-0.278-0.092-0.454h-0.027c-0.202,0.281-0.459,0.506-0.771,0.672C98.103,38.483,97.693,38.566,97.183,38.566  M90.345,31.648h2.056v1.054h0.038c0.238-0.403,0.502-0.698,0.791-0.882c0.29-0.185,0.641-0.277,1.055-0.277 c0.202,0,0.341,0.018,0.42,0.053v1.844h-0.052c-0.658-0.097-1.184,0.015-1.574,0.336c-0.391,0.321-0.586,0.85-0.586,1.588v3.03 h-2.149V31.648z M87.526,34.296c-0.045-0.404-0.179-0.724-0.41-0.962c-0.227-0.237-0.517-0.355-0.868-0.355 c-0.413,0-0.73,0.118-0.949,0.355c-0.219,0.238-0.364,0.558-0.434,0.962H87.526z M86.339,38.592c-0.551,0-1.053-0.09-1.502-0.27 c-0.447-0.179-0.824-0.43-1.132-0.751c-0.307-0.321-0.545-0.701-0.711-1.14c-0.167-0.438-0.251-0.913-0.251-1.423 c0-0.5,0.083-0.968,0.251-1.403c0.166-0.435,0.404-0.813,0.711-1.134c0.307-0.32,0.672-0.571,1.092-0.751 c0.422-0.18,0.892-0.27,1.412-0.27c0.483,0,0.914,0.075,1.296,0.224c0.383,0.149,0.718,0.356,1.007,0.619 c0.406,0.369,0.707,0.837,0.904,1.404c0.198,0.567,0.292,1.192,0.283,1.878h-4.849c0.07,0.457,0.229,0.816,0.475,1.08 c0.246,0.262,0.593,0.395,1.041,0.395c0.281,0,0.514-0.06,0.699-0.178c0.186-0.118,0.324-0.284,0.421-0.494h2.095 c-0.07,0.307-0.202,0.599-0.395,0.876c-0.193,0.277-0.439,0.516-0.739,0.719c-0.281,0.203-0.595,0.355-0.942,0.462 C87.16,38.539,86.77,38.592,86.339,38.592 M71.702,31.648h2.055v0.962h0.039c0.211-0.351,0.481-0.632,0.811-0.844 c0.328-0.21,0.74-0.316,1.232-0.316c0.448,0,0.832,0.106,1.153,0.316c0.32,0.211,0.57,0.501,0.744,0.87h0.027 c0.263-0.413,0.573-0.714,0.929-0.902c0.355-0.19,0.753-0.284,1.191-0.284c0.379,0,0.713,0.062,1.003,0.185 c0.29,0.123,0.528,0.297,0.717,0.521c0.19,0.224,0.332,0.494,0.429,0.81c0.097,0.317,0.145,0.665,0.145,1.041v4.388H80.03v-4.005 c0-0.37-0.078-0.653-0.231-0.85c-0.155-0.197-0.394-0.296-0.717-0.296c-0.343,0-0.607,0.127-0.791,0.382 c-0.185,0.255-0.276,0.584-0.276,0.989v3.781h-2.148v-4.005c0-0.37-0.078-0.653-0.23-0.85c-0.156-0.197-0.394-0.296-0.718-0.296 c-0.335,0-0.596,0.127-0.784,0.382c-0.191,0.255-0.285,0.584-0.285,0.989v3.781h-2.147V31.648z M67.473,37.195 c0.403,0,0.731-0.11,0.981-0.33c0.25-0.22,0.375-0.514,0.375-0.882V35.18c-0.14,0.07-0.306,0.134-0.495,0.191 c-0.189,0.058-0.392,0.112-0.611,0.164c-0.413,0.097-0.712,0.209-0.897,0.336c-0.183,0.128-0.276,0.319-0.276,0.574 c0,0.272,0.088,0.465,0.262,0.58C66.989,37.139,67.209,37.195,67.473,37.195 M66.788,38.566c-0.335,0-0.645-0.045-0.93-0.131 c-0.286-0.089-0.529-0.221-0.732-0.396c-0.202-0.176-0.36-0.391-0.474-0.646c-0.115-0.254-0.172-0.548-0.172-0.882 c0-0.369,0.067-0.679,0.205-0.93c0.135-0.25,0.322-0.455,0.56-0.619c0.237-0.162,0.511-0.287,0.823-0.375 c0.311-0.087,0.643-0.154,0.995-0.197c0.633-0.079,1.075-0.167,1.33-0.264c0.255-0.096,0.382-0.258,0.382-0.487 c0-0.219-0.073-0.395-0.218-0.526c-0.144-0.132-0.379-0.198-0.703-0.198c-0.343,0-0.604,0.075-0.778,0.224 c-0.177,0.149-0.282,0.365-0.317,0.645h-1.977c0.009-0.316,0.08-0.614,0.212-0.895c0.13-0.282,0.322-0.527,0.573-0.738 c0.25-0.211,0.564-0.378,0.943-0.501c0.377-0.123,0.82-0.183,1.329-0.183c0.51,0,0.941,0.046,1.292,0.138 c0.352,0.092,0.65,0.231,0.897,0.415c0.289,0.211,0.504,0.479,0.645,0.803c0.14,0.326,0.21,0.7,0.21,1.121v3.399 c0,0.273,0.015,0.485,0.046,0.639c0.032,0.154,0.094,0.262,0.191,0.323v0.092h-2.081c-0.053-0.069-0.097-0.169-0.132-0.296 c-0.035-0.128-0.066-0.278-0.093-0.454H68.79c-0.203,0.281-0.46,0.506-0.771,0.672C67.707,38.483,67.296,38.566,66.788,38.566  M60.74,38.605c-0.545,0-1.038-0.091-1.476-0.27c-0.439-0.181-0.815-0.431-1.126-0.752c-0.311-0.32-0.554-0.698-0.725-1.133 c-0.172-0.435-0.257-0.907-0.257-1.416c0-0.509,0.083-0.981,0.251-1.415c0.166-0.435,0.403-0.814,0.711-1.134 c0.307-0.321,0.678-0.572,1.114-0.751c0.434-0.18,0.918-0.27,1.456-0.27c0.457,0,0.87,0.063,1.244,0.19 c0.374,0.128,0.698,0.305,0.971,0.534c0.271,0.228,0.491,0.5,0.657,0.817c0.169,0.317,0.278,0.663,0.331,1.041h-2.068 c-0.071-0.308-0.197-0.551-0.376-0.732c-0.179-0.18-0.423-0.27-0.732-0.27c-0.465,0-0.812,0.177-1.04,0.533 c-0.229,0.356-0.342,0.842-0.342,1.456c0,0.606,0.113,1.085,0.342,1.437c0.228,0.351,0.575,0.527,1.04,0.527 c0.685,0,1.076-0.387,1.173-1.159h2.056c-0.019,0.386-0.104,0.748-0.258,1.087c-0.154,0.338-0.368,0.632-0.645,0.883 c-0.276,0.25-0.612,0.445-1.003,0.586C61.647,38.535,61.214,38.605,60.74,38.605 M14.286,14.285v21.429H50v-7.143H21.428v-7.143H50 v-7.143H14.286z M50,0v7.143H7.143v35.714H50V50H0V0H50z" fill="#FFFFFF"></path>
    </svg>